<?xml version="1.0" standalone="no"?>
<!DOCTYPE svg PUBLIC "-//W3C//DTD SVG 20010904//EN"
 "http://www.w3.org/TR/2001/REC-SVG-20010904/DTD/svg10.dtd">
<svg version="1.0" xmlns="http://www.w3.org/2000/svg"
 width="210.000000pt" height="210.000000pt" viewBox="0 0 210.000000 210.000000"
 preserveAspectRatio="xMidYMid meet">
<metadata>
Created by potrace 1.11, written by Peter Selinger 2001-2013
</metadata>
<g transform="translate(0.000000,210.000000) scale(0.100000,-0.100000)"
fill="#000000" stroke="none">
<path d="M0 1050 l0 -1050 1050 0 1050 0 0 1050 0 1050 -1050 0 -1050 0 0
-1050z m805 858 c-5 -20 -2 -23 22 -24 15 -1 38 -5 51 -9 17 -6 22 -3 22 9 0
9 5 16 10 16 6 0 10 7 10 15 0 17 16 20 25 5 4 -7 13 -7 26 0 15 8 19 7 19 -4
0 -10 6 -13 16 -9 9 3 19 1 23 -4 11 -18 69 -24 75 -8 8 21 26 19 26 -3 0 -27
9 -32 32 -19 16 10 21 9 29 -5 6 -10 17 -18 25 -18 8 0 12 -5 9 -10 -3 -6 0
-12 7 -14 93 -26 98 -30 107 -60 4 -17 13 -30 20 -28 6 1 11 -4 11 -11 0 -7 8
-20 18 -29 9 -9 28 -30 42 -47 13 -17 32 -31 41 -31 10 0 16 -7 15 -17 -1 -13
7 -19 26 -21 16 -2 30 -11 33 -22 4 -12 12 -17 21 -13 9 3 14 0 12 -8 -2 -7 8
-15 22 -18 34 -8 68 -40 63 -60 -3 -11 8 -21 37 -33 26 -12 40 -24 40 -37 0
-10 7 -22 16 -25 9 -4 14 -9 11 -12 -3 -3 3 -14 14 -25 23 -23 25 -39 4 -39
-14 0 -13 -3 2 -24 10 -13 21 -22 25 -20 13 8 14 -21 1 -34 -7 -7 -13 -21 -13
-30 1 -15 3 -14 16 3 15 19 15 19 8 -10 -4 -16 -14 -36 -21 -44 -8 -8 -12 -23
-9 -34 3 -12 -3 -32 -15 -48 -10 -15 -19 -32 -19 -38 0 -6 -9 -11 -20 -11 -25
0 -25 -9 -2 -26 16 -12 16 -13 0 -14 -9 0 -18 -10 -20 -22 -2 -12 -14 -28 -27
-34 -13 -7 -27 -18 -32 -26 -4 -7 -14 -13 -21 -14 -7 0 -22 -2 -33 -3 -11 -1
-33 -13 -50 -27 -16 -13 -22 -22 -12 -18 9 3 17 1 17 -5 0 -6 -4 -11 -10 -11
-5 0 -10 -7 -10 -16 0 -14 -3 -14 -15 -4 -12 10 -15 10 -15 -2 0 -21 -29 -79
-53 -105 -13 -15 -20 -36 -20 -64 0 -28 -6 -48 -19 -61 -14 -14 -18 -28 -15
-46 6 -30 -41 -140 -73 -172 -11 -11 -19 -26 -18 -32 2 -7 -8 -14 -22 -16 -14
-2 -30 -10 -37 -19 -6 -8 -16 -12 -21 -9 -6 3 -13 -1 -16 -9 -6 -17 -55 -11
-68 9 -5 7 -8 6 -8 -4 0 -8 -12 -28 -25 -43 -23 -26 -26 -27 -47 -13 -13 8
-52 20 -88 27 -36 7 -70 19 -76 26 -6 7 -19 13 -28 13 -9 0 -16 5 -16 10 0 6
-11 10 -24 10 -13 0 -27 6 -29 13 -3 7 -6 5 -6 -5 -1 -26 -21 -22 -21 5 0 12
-14 35 -30 51 -16 16 -42 55 -57 88 -16 32 -32 58 -36 58 -5 0 -6 8 -2 19 3
10 1 30 -4 45 -8 19 -7 26 2 26 9 0 9 2 -1 8 -8 5 -10 16 -6 27 5 13 4 16 -4
11 -14 -8 -16 6 -3 19 11 12 -4 55 -19 55 -5 0 -10 11 -10 24 0 15 -7 27 -18
30 -11 4 -25 18 -32 31 -7 14 -20 26 -29 26 -13 1 -12 2 2 6 28 7 20 24 -11
21 -15 -1 -34 2 -41 7 -11 6 -13 3 -8 -14 3 -14 1 -21 -6 -18 -7 2 -13 16 -15
30 -2 15 -9 27 -15 27 -7 0 -20 9 -30 20 -9 11 -12 20 -7 20 6 0 10 7 10 15 0
8 -7 15 -15 15 -8 0 -15 9 -15 21 0 12 -4 17 -11 14 -6 -4 -22 4 -36 16 -13
13 -27 22 -31 19 -3 -3 -9 10 -13 28 -3 17 -3 32 2 32 5 0 9 -4 9 -9 0 -5 13
-14 30 -19 l30 -11 -15 32 c-9 18 -23 44 -31 60 -14 25 -12 31 9 28 15 -2 6
19 -13 29 -16 8 -19 17 -14 33 4 12 8 29 9 37 1 8 5 23 9 33 5 10 6 20 3 23
-7 7 25 39 49 48 18 7 18 8 -3 26 -31 25 -31 52 1 44 18 -4 25 -1 29 16 5 18
11 21 34 16 33 -7 40 -3 77 47 16 20 36 37 45 37 9 0 30 14 48 30 28 25 31 32
23 59 -6 23 -5 31 4 31 21 0 41 30 41 62 0 15 -4 28 -8 28 -5 0 -15 7 -23 15
-12 12 -12 15 -2 15 7 0 24 9 38 20 29 23 54 26 47 6 -4 -10 2 -12 26 -7 33 7
38 23 26 91 -3 20 0 24 14 22 9 -2 17 2 17 8 0 5 2 10 5 10 3 0 3 -10 0 -22z
m-395 -19 c0 -4 -11 -6 -25 -6 -14 0 -25 3 -25 8 0 5 7 9 15 9 8 0 15 6 15 13
0 12 20 -11 20 -24z m265 1 c4 -6 -2 -7 -16 -1 -13 4 -25 14 -27 20 -3 10 0
10 16 2 12 -6 24 -16 27 -21z m-425 -19 c0 -17 -18 -21 -24 -6 -3 9 0 15 9 15
8 0 15 -4 15 -9z m362 -13 c-7 -7 -12 -8 -12 -2 0 14 12 26 19 19 2 -3 -1 -11
-7 -17z m138 18 c0 -11 -19 -15 -25 -6 -3 5 1 10 9 10 9 0 16 -2 16 -4z m-40
-20 c0 -3 -4 -8 -10 -11 -5 -3 -10 -1 -10 4 0 6 5 11 10 11 6 0 10 -2 10 -4z
m-75 -26 c-3 -5 -10 -10 -16 -10 -5 0 -9 5 -9 10 0 6 7 10 16 10 8 0 12 -4 9
-10z m-35 -60 c12 -8 10 -10 -9 -10 -16 0 -21 -4 -17 -15 3 -8 2 -15 -3 -15
-5 0 -11 11 -13 25 -6 27 13 34 42 15z m-210 -204 c0 -3 -4 -8 -10 -11 -5 -3
-10 -1 -10 4 0 6 5 11 10 11 6 0 10 -2 10 -4z m-33 -102 c-3 -3 -12 -4 -19 -1
-8 3 -5 6 6 6 11 1 17 -2 13 -5z"/>
<path d="M692 1741 c2 -7 7 -12 11 -12 12 1 9 15 -3 20 -7 2 -11 -2 -8 -8z"/>
<path d="M893 1678 c3 -24 12 -65 20 -93 13 -44 13 -56 0 -95 -8 -25 -17 -69
-20 -97 -5 -52 -6 -53 -39 -53 -18 0 -36 -5 -39 -10 -4 -6 -25 -20 -48 -31
-41 -21 -42 -21 -94 -4 -29 10 -53 24 -53 32 0 9 -17 13 -64 13 l-65 0 0 -155
0 -155 55 0 c42 0 64 6 92 25 48 32 96 32 144 0 22 -15 51 -25 72 -25 32 0 36
-3 36 -26 0 -14 9 -47 21 -74 21 -48 21 -48 1 -93 -16 -35 -19 -64 -18 -144 1
-66 6 -105 14 -116 9 -11 10 -21 4 -34 -5 -10 -13 -53 -17 -95 l-7 -77 161 -3
161 -3 0 46 c0 26 -8 70 -17 99 -13 41 -14 55 -5 68 22 31 25 45 14 63 -7 11
-8 20 -2 24 13 8 13 48 -1 62 -8 8 -8 13 0 17 16 10 13 52 -4 66 -20 17 -20
118 0 144 8 11 15 32 15 48 0 26 3 28 40 28 22 0 40 4 40 8 0 15 59 42 92 42
18 0 51 -11 73 -25 30 -18 54 -24 98 -25 54 0 57 1 57 24 0 13 -6 27 -12 30
-10 5 -10 7 0 12 15 7 17 160 2 169 -6 4 -5 13 2 24 21 35 3 51 -56 51 -30 0
-60 -6 -68 -13 -7 -7 -32 -21 -55 -31 -42 -19 -44 -19 -85 0 -24 10 -47 24
-51 31 -4 7 -24 13 -42 13 l-35 0 0 49 c0 31 -5 53 -15 61 -11 9 -15 33 -15
90 0 57 4 81 15 90 9 7 15 29 15 51 0 36 -2 39 -28 39 -15 0 -34 -6 -40 -12
-10 -10 -14 -10 -21 0 -8 14 -141 14 -141 0 0 -4 -7 -8 -15 -8 -8 0 -15 5 -15
10 0 6 -14 10 -31 10 -31 0 -31 -1 -26 -42z m101 -23 c-10 -8 -25 -15 -33 -15
-7 0 -11 -6 -8 -14 4 -10 1 -13 -9 -9 -21 8 -17 20 14 36 37 20 62 21 36 2z
m46 -55 c0 -5 -5 -10 -11 -10 -5 0 -7 5 -4 10 3 6 8 10 11 10 2 0 4 -4 4 -10z
m21 -33 c-10 -9 -11 -8 -5 6 3 10 9 15 12 12 3 -3 0 -11 -7 -18z m-67 -93
c-11 -15 -25 -36 -31 -48 -12 -20 -13 -20 -13 -1 0 11 12 31 25 44 14 13 25
28 25 34 0 6 3 7 6 4 4 -4 -2 -18 -12 -33z m119 -4 c9 -11 13 -20 7 -20 -5 0
-14 9 -20 20 -6 11 -9 20 -8 20 2 0 11 -9 21 -20z m-73 -117 c-11 -17 -11 -17
-6 0 3 10 6 24 7 30 0 9 2 9 5 0 3 -7 0 -20 -6 -30z m-100 -58 c-7 -8 -16 -15
-21 -15 -5 0 -1 9 8 20 9 11 19 17 21 15 3 -3 -1 -11 -8 -20z m-360 -4 c0 -11
-41 -63 -46 -58 -7 6 27 67 37 67 5 0 9 -4 9 -9z m950 -1 c0 -5 -7 -10 -15
-10 -9 0 -27 -11 -41 -25 -14 -14 -29 -25 -34 -25 -5 0 7 16 28 35 37 34 62
44 62 25z m-446 -9 c11 -4 20 -19 22 -34 2 -23 -2 -28 -37 -38 -21 -7 -39 -16
-39 -22 0 -5 -13 -7 -30 -5 -16 2 -32 0 -34 -6 -2 -6 -5 -1 -5 11 -2 37 39 75
82 76 38 1 39 11 2 20 l-20 5 20 0 c11 0 29 -3 39 -7z m-284 -26 c-43 -32 -52
-32 -20 -1 14 14 31 25 39 25 8 1 0 -10 -19 -24z m205 13 c-33 -19 -54 -51
-55 -82 0 -22 -3 -27 -11 -19 -26 26 30 113 71 112 11 0 9 -3 -5 -11z m285 4
c0 -4 -16 -6 -35 -4 -19 2 -35 6 -35 8 0 2 16 4 35 4 19 0 35 -4 35 -8z m-677
-67 c-3 -9 -8 -14 -10 -11 -3 3 -2 9 2 15 9 16 15 13 8 -4z m277 -10 c0 -8 -9
-15 -20 -15 -22 0 -27 15 -7 23 21 9 27 7 27 -8z m555 -5 c-3 -5 -18 -9 -33
-9 l-27 1 30 8 c17 4 31 8 33 9 2 0 0 -3 -3 -9z m-732 -7 c-7 -2 -19 -2 -25 0
-7 3 -2 5 12 5 14 0 19 -2 13 -5z m-53 -7 c0 -2 -7 -7 -16 -10 -8 -3 -12 -2
-9 4 6 10 25 14 25 6z m25 -31 c-50 -18 -55 -18 -31 0 11 8 31 15 45 15 22 -1
19 -3 -14 -15z m664 -4 c-20 -9 -44 -23 -53 -30 -14 -12 -16 -12 -11 0 8 20
56 49 80 48 14 0 9 -6 -16 -18z m211 6 c0 -2 -7 -18 -16 -35 -11 -22 -22 -32
-37 -31 -13 1 -16 3 -7 5 9 3 21 18 29 34 7 17 17 30 22 30 5 0 9 -2 9 -3z
m-987 -48 c7 -25 -9 -25 -23 0 -13 26 -13 31 4 25 8 -3 16 -14 19 -25z m347
-8 c0 -6 -17 -7 -37 -4 -52 8 -54 13 -5 13 23 0 42 -4 42 -9z m280 -1 c-20
-13 -33 -13 -25 0 3 6 14 10 23 10 15 0 15 -2 2 -10z m-229 -90 c5 0 9 -5 9
-11 0 -8 -5 -8 -15 1 -8 7 -14 20 -14 29 1 13 2 13 6 -1 2 -10 9 -18 14 -18z
m79 0 c0 -5 -4 -10 -10 -10 -5 0 -10 5 -10 10 0 6 5 10 10 10 6 0 10 -4 10
-10z m63 -27 c-11 -32 -33 -59 -33 -42 0 14 27 59 35 59 3 0 2 -8 -2 -17z
m-73 -190 c-10 -16 -11 -15 -6 7 3 14 6 34 7 45 1 13 3 11 6 -7 2 -15 -1 -35
-7 -45z m-40 24 c0 -7 -11 -24 -25 -39 -14 -15 -25 -34 -25 -43 0 -9 -4 -13
-10 -10 -15 10 -12 18 20 53 17 18 30 37 30 43 0 5 2 9 5 9 3 0 5 -6 5 -13z
m132 -107 c-40 -36 -64 -40 -31 -5 13 13 30 25 37 25 15 0 16 12 2 28 -5 7 -2
5 7 -3 16 -14 15 -17 -15 -45z m-144 -160 c-18 -26 -34 -44 -36 -39 -2 4 7 23
21 41 13 18 27 42 32 53 5 13 9 16 12 7 3 -7 -10 -35 -29 -62z m51 6 c-7 -20
-17 -36 -22 -36 -5 0 -7 3 -5 8 3 4 11 21 18 39 19 43 25 34 9 -11z m28 -62
c-3 -3 -12 -4 -19 -1 -8 3 -5 6 6 6 11 1 17 -2 13 -5z m91 -39 c-2 -25 -3 -25
-96 -25 -59 0 -91 4 -87 10 3 6 42 10 86 10 64 0 79 3 79 15 0 8 4 15 10 15 5
0 9 -11 8 -25z"/>
<path d="M1670 940 c0 -5 7 -10 15 -10 8 0 15 5 15 10 0 6 -7 10 -15 10 -8 0
-15 -4 -15 -10z"/>
</g>
</svg>
